<svg xmlns="http://www.w3.org/2000/svg" xml:space="preserve" width="2000" height="213" data-id="lg_QKmdnEs860tRfFbbTJ" data-version="1" viewBox="0 0 2000 213"><g data-padding="20"><g transform="translate(10 3.81)scale(.96422)"><rect width="609.126" height="216.732" x="542.004" y="-111.644" fill="#003231" paint-order="stroke" rx="0" ry="0" transform="matrix(.88 0 0 .88 293.446 120.442)" vector-effect="non-scaling-stroke"/><rect width="609.126" height="216.732" x="542.004" y="-111.644" fill="#cdd6bb" stroke="#333" stroke-width="8" paint-order="stroke" rx="0" ry="0" transform="matrix(.88 0 0 .88 270.065 98.327)" vector-effect="non-scaling-stroke"/><rect width="493.405" height="154.81" x="505.801" y="-80.319" fill="none" rx="0" ry="0" transform="matrix(.99 0 0 .99 267.05 96.6)"/><path fill="#003231" d="M801.782 135.82h-13.355V38.167h12.82l35.393 73.448 35.195-73.448h12.96v97.584h-13.426V68.956l-31.54 66.864h-6.436l-31.61-66.864Zm117.523-85.228H905.14V36.82h14.167Zm0 85.239H905.14V62.59h14.167Zm86.12-.01H991.05V99.814q0-4.276-.712-8.781-.713-4.514-2.713-8.375-2-3.871-5.633-6.237-3.623-2.376-9.455-2.376-3.8 0-7.187 1.257-3.396 1.247-5.94 4.03-2.544 2.78-4 7.325t-1.455 11.059l-8.82-3.327q0-9.97 3.732-17.602 3.732-7.623 10.711-11.9 6.99-4.267 16.89-4.267 7.593 0 12.751 2.436 5.148 2.445 8.375 6.415 3.218 3.96 4.91 8.642 1.704 4.683 2.308 9.158.613 4.475.613 7.86Zm-51.47 0H939.58V62.58h12.682v21.155h1.693Zm97.317 2.039q-10.246 0-17.67-5.09-7.426-5.087-11.456-13.87-4.039-8.78-4.039-19.77 0-11.047 4.07-19.76 4.068-8.721 11.562-13.77 7.495-5.05 17.8-5.05 10.376 0 17.464 5.05t10.712 13.8q3.633 8.752 3.633 19.73 0 10.99-3.663 19.74-3.663 8.743-10.78 13.87-7.129 5.12-17.633 5.12m1.96-12.82q6.99 0 11.395-3.327 4.406-3.316 6.445-9.147 2.03-5.832 2.03-13.435 0-7.593-2.07-13.424-2.068-5.831-6.375-9.088-4.306-3.258-10.95-3.258-7.048 0-11.592 3.465-4.544 3.456-6.752 9.287-2.198 5.83-2.198 13.018 0 7.257 2.198 13.128 2.208 5.86 6.653 9.325 4.435 3.455 11.216 3.455m32.482 10.782h-12.612V83.133h-1.624V38.166h14.236Zm36.432 0h-14.987v-14.99h14.988Zm36.957.01h-14.177V36.146h14.177Zm43.738 32.54h-13.492l14.176-38.58.198 11.386-31.937-78.597h14.78l23.88 60.697h-4.347l22.79-60.697h14.375Z"/></g><path fill="transparent" stroke="transparent" d="M720.5 0h559v213h-559z"/></g></svg>